<svg xmlns="http://www.w3.org/2000/svg" width="85.21" height="91.133" viewBox="0 0 85.21 91.133">
  <path id="Path_17" data-name="Path 17" d="M215.336,107.329,180.011,89.8a7.573,7.573,0,0,0-6.784.026L138.488,107.4a7.573,7.573,0,0,0-4.155,6.758v40.781a7.573,7.573,0,0,0,4.145,6.752l34.74,17.637a7.572,7.572,0,0,0,6.8.026l35.325-17.6a7.573,7.573,0,0,0,4.2-6.778V114.113A7.573,7.573,0,0,0,215.336,107.329ZM173.2,171.4l-32.089-16.261V117.087L173.2,133.24Zm3.74-44.34-30.951-15.5,30.951-15.394,30.951,15.449Z" transform="translate(-134.333 -89.011)" fill="#fff"/>
</svg>
